PathFileType  4	(X/Y/Z) C:\Users\antoi\Documents\MyRepositories\mobilecap\ResultsAnalysis
DataRate	CameraRate	NumFrames	NumMarkers	Units	OrigDataRate	OrigDataStartFrame	OrigNumFrames
100.0	100.0	6	51	mm	100.0	39	311
Frame#	Time	r_knee			r_shank_antsup			r_ankle			r_calc			r_5meta			r_toe			L_knee			L_shank_antsup			L_ankle			L_calc			L_5meta			L_toe			r_sh2			r_sh3			r_sh4			L_sh2			L_sh3			r_thigh1			r_thigh2			r_thigh3			r_thigh4			r_thigh5			L_thigh1			L_thigh2			L_thigh3			L_thigh4			r.ASIS			r.PSIS			L.ASIS			L.PSIS			C7			R_Shoulder			L_Shoulder			R_Sternum			L_Sternum			R_humerus			R_elbow_med			R_elbow_lat			R_forearm			R_wrist_radius			R_wrist_ulna			L_humerus			L_elbow_med			L_elbow_lat			L_forearm			L_wrist_radius			L_wrist_ulna			R_HJC			L_HJC			R_HJC_reg			L_HJC_reg			
		X1	Y1	Z1	X2	Y2	Z2	X3	Y3	Z3	X4	Y4	Z4	X5	Y5	Z5	X6	Y6	Z6	X7	Y7	Z7	X8	Y8	Z8	X9	Y9	Z9	X10	Y10	Z10	X11	Y11	Z11	X12	Y12	Z12	X13	Y13	Z13	X14	Y14	Z14	X15	Y15	Z15	X16	Y16	Z16	X17	Y17	Z17	X18	Y18	Z18	X19	Y19	Z19	X20	Y20	Z20	X21	Y21	Z21	X22	Y22	Z22	X23	Y23	Z23	X24	Y24	Z24	X25	Y25	Z25	X26	Y26	Z26	X27	Y27	Z27	X28	Y28	Z28	X29	Y29	Z29	X30	Y30	Z30	X31	Y31	Z31	X32	Y32	Z32	X33	Y33	Z33	X34	Y34	Z34	X35	Y35	Z35	X36	Y36	Z36	X37	Y37	Z37	X38	Y38	Z38	X39	Y39	Z39	X40	Y40	Z40	X41	Y41	Z41	X42	Y42	Z42	X43	Y43	Z43	X44	Y44	Z44	X45	Y45	Z45	X46	Y46	Z46	X47	Y47	Z47	X48	Y48	Z48	X49	Y49	Z49	X50	Y50	Z50	X51	Y51	Z51	

39	0.38000000	-1160.39322	779.69352	-417.65413	-1126.64566	715.74780	-416.47419	-1209.37154	391.17442	-420.82475	-1263.92778	361.00525	-463.54943	-1101.52305	350.33137	-393.32972	-1062.36707	369.95812	-446.81117	-1130.52448	773.25522	-701.60890	-1100.73744	685.68575	-691.53269	-1205.13817	400.91655	-706.17921	-1263.29526	359.30350	-661.46589	-1104.73551	352.95211	-734.12159	-1054.42410	369.13339	-680.24781	-1151.38706	605.82069	-404.81150	-1195.43090	736.26670	-390.03462	-1228.35124	621.81372	-383.61215	-1174.09093	717.22612	-737.45360	-1201.01216	595.02937	-741.82481	-1118.14982	1031.94493	-373.28848	-1113.31296	917.43091	-388.96876	-1222.56339	910.62888	-409.81539	-1231.26230	1023.98900	-388.97088	-1175.32638	892.08156	-389.03784	-1101.12637	1051.59063	-751.29577	-1088.94092	914.48533	-726.72896	-1212.54475	1039.29139	-756.80586	-1203.38210	907.47783	-712.78227	-1069.44376	1220.43997	-448.07326	-1267.09741	1290.57429	-529.71699	-1061.63291	1222.58893	-668.50084	-1264.23008	1289.88689	-612.01229	-1060.98726	1703.79208	-544.99398	-1012.18374	1660.41003	-402.27967	-1007.86992	1673.32119	-681.79120	-955.18420	1611.43457	-519.47086	-956.47777	1612.85059	-560.08443	-1037.63528	1561.55641	-324.93827	-1232.29412	1451.16941	-286.51739	-1188.09505	1448.47467	-234.96936	-1159.50719	1356.92358	-221.46837	-1170.02308	1213.38219	-214.50175	-1195.81629	1220.51479	-187.76953	-1032.39658	1600.17363	-773.37440	-1195.82457	1457.85135	-839.30539	-1146.78053	1473.40273	-885.40415	-1123.83974	1369.87969	-915.35757	-1132.65037	1243.62921	-936.13271	-1157.03223	1255.47576	-967.02873	-1167.60343	1151.03437	-459.00042	-1158.21247	1154.34520	-666.26901	-1151.25925	1169.74575	-480.69812	-1146.18984	1168.52891	-626.18556	
40	0.39000000	-1158.89966	779.48453	-417.49155	-1124.98822	715.27246	-416.21792	-1209.42419	391.05990	-420.80707	-1263.95429	360.99459	-463.52182	-1101.70045	350.41561	-393.37151	-1062.46374	370.12327	-446.76810	-1128.97923	772.92440	-701.55548	-1099.47903	685.24528	-691.62705	-1205.12075	400.90686	-706.23897	-1263.35157	359.30326	-661.46651	-1104.76795	352.96342	-734.09122	-1054.45496	369.15151	-680.20825	-1150.34268	605.54597	-404.65595	-1193.73145	736.22881	-389.90422	-1227.15109	621.71824	-383.40080	-1172.66850	717.00137	-737.54437	-1199.98867	594.86367	-741.74876	-1117.63443	1031.90358	-373.15711	-1112.39769	917.09869	-388.90356	-1221.76327	910.21487	-409.59815	-1230.92304	1023.32992	-388.56000	-1174.46437	891.63604	-388.85575	-1100.59309	1051.31911	-751.07241	-1087.84684	914.14322	-726.58789	-1212.05522	1038.97787	-757.19049	-1202.24840	906.88269	-713.04522	-1069.36245	1219.54718	-448.12847	-1266.28767	1291.34968	-529.67323	-1061.35882	1221.59691	-668.22935	-1263.34355	1290.56013	-611.89798	-1055.39007	1702.30872	-544.44501	-1006.87976	1658.56946	-401.81319	-1002.65388	1671.54883	-681.52907	-951.35233	1609.02845	-519.77871	-951.81945	1610.53426	-559.89167	-1036.01380	1561.37870	-324.16548	-1234.21108	1457.23595	-287.50301	-1191.06352	1453.67447	-235.27154	-1165.43443	1361.48849	-220.51297	-1180.70852	1218.13763	-212.96432	-1206.45078	1226.58004	-186.24540	-1030.11482	1600.40037	-773.49536	-1199.45102	1464.78004	-840.01347	-1150.23888	1478.61117	-885.34806	-1131.33779	1374.79900	-916.49498	-1144.17858	1248.98344	-938.00328	-1168.55446	1261.77295	-968.58265	-1168.02653	1150.95518	-458.89975	-1158.51595	1154.16877	-666.16436	-1151.56331	1169.72234	-480.73481	-1146.36190	1168.32522	-626.00443	
41	0.40000000	-1157.24259	779.21919	-417.29138	-1123.06658	714.75969	-415.97730	-1209.48037	390.93796	-420.81580	-1263.96406	360.98962	-463.45224	-1101.78527	350.47293	-393.29678	-1062.54155	370.29265	-446.73681	-1127.35251	772.57912	-701.42259	-1098.17402	684.77390	-691.64466	-1205.11505	400.91166	-706.32033	-1263.40598	359.33359	-661.52104	-1104.82076	352.97880	-734.04709	-1054.47768	369.23243	-680.18057	-1149.06032	605.23811	-404.45191	-1191.78070	736.00028	-389.57057	-1225.77748	621.64260	-383.04160	-1171.21646	716.79468	-737.53954	-1199.01605	594.74965	-741.68258	-1117.37709	1031.76673	-373.05794	-1111.62875	916.94951	-388.41963	-1220.82471	909.59498	-409.57670	-1230.56117	1022.70373	-388.11409	-1173.42482	891.25703	-388.68515	-1100.11399	1051.10490	-750.90350	-1086.71642	914.03037	-726.57335	-1211.42659	1038.25441	-757.03279	-1201.15179	906.19059	-713.14072	-1069.28537	1218.65226	-448.02214	-1265.43830	1292.10994	-529.63236	-1061.07828	1220.54897	-667.90009	-1262.35116	1291.00569	-612.36571	-1049.62383	1700.69198	-544.07482	-1001.53005	1656.56647	-401.32578	-997.40037	1669.63781	-681.27002	-947.03763	1606.50516	-519.79358	-947.05450	1608.03313	-559.60223	-1034.22345	1561.24301	-323.42799	-1235.67505	1463.30027	-288.94614	-1193.66796	1458.94480	-235.78067	-1171.05457	1366.11404	-219.97815	-1190.76499	1223.46639	-211.77846	-1216.66449	1232.70805	-185.26093	-1027.79085	1600.56450	-773.52852	-1202.24558	1471.27901	-839.33781	-1153.53129	1483.81534	-885.07958	-1138.29370	1379.77246	-917.48007	-1155.12274	1254.49150	-939.30981	-1179.82555	1267.95543	-969.21895	-1168.49456	1150.89962	-458.80318	-1158.65205	1153.83484	-666.05581	-1151.93824	1169.89579	-480.56433	-1146.52436	1167.96430	-625.67484	
42	0.41000000	-1155.37762	778.89589	-417.01865	-1121.05356	714.26383	-415.69882	-1209.53528	390.90497	-420.76059	-1263.99444	360.97467	-463.35269	-1101.72639	350.56202	-393.01824	-1062.57437	370.49261	-446.70004	-1125.65026	772.28494	-701.29530	-1096.76249	684.24443	-691.63938	-1205.11107	400.91722	-706.41611	-1263.41915	359.39885	-661.59752	-1104.85790	353.01133	-734.01892	-1054.51504	369.37094	-680.20058	-1147.55291	604.76780	-404.21069	-1189.72973	735.70654	-389.04637	-1224.26656	621.63737	-382.60715	-1169.64904	716.67029	-737.65969	-1198.05417	594.79377	-741.96091	-1117.56710	1030.97934	-372.65526	-1110.93180	916.82668	-387.69013	-1219.69550	908.84906	-409.38637	-1230.09441	1022.12946	-387.91666	-1172.20530	890.98412	-388.36304	-1099.58189	1050.90443	-750.72482	-1085.56404	914.04007	-726.62166	-1210.86822	1037.46138	-756.76371	-1200.07448	905.43007	-713.07079	-1069.21470	1217.77491	-447.81596	-1264.58221	1292.86063	-529.54559	-1060.84670	1219.45117	-667.51286	-1261.43686	1291.34033	-612.88207	-1043.80366	1698.93382	-543.88734	-996.14979	1654.33030	-400.92654	-992.09181	1667.54480	-681.10588	-942.18861	1603.86781	-519.37043	-942.23979	1605.34123	-559.34304	-1031.93752	1560.83401	-322.76028	-1236.81007	1469.25851	-290.59794	-1195.83754	1464.19434	-236.47595	-1176.28896	1370.71040	-219.79168	-1200.36695	1228.98445	-211.26188	-1226.51057	1238.83052	-184.87949	-1025.36870	1600.67679	-773.73825	-1204.55182	1477.46418	-837.74223	-1156.53975	1489.12096	-884.56123	-1144.75354	1384.82620	-918.25424	-1165.48640	1260.19644	-939.98316	-1190.75109	1274.19496	-968.90190	-1168.97533	1150.86932	-458.61347	-1158.80308	1153.41789	-665.85554	-1152.28135	1170.18051	-480.15373	-1146.80905	1167.53984	-625.13424	
43	0.42000000	-1153.25099	778.55359	-416.66187	-1118.91190	713.69472	-415.33954	-1209.61575	390.87507	-420.70313	-1264.05142	360.96917	-463.26681	-1101.63541	350.66595	-392.71664	-1062.59038	370.68510	-446.62097	-1123.83076	772.06032	-701.42954	-1095.22689	683.66921	-691.72490	-1205.09440	400.91661	-706.50755	-1263.41351	359.46832	-661.63048	-1104.87452	353.06587	-733.98488	-1054.53270	369.50857	-680.23770	-1145.96393	604.25654	-404.04849	-1187.31924	735.43781	-388.58170	-1222.53295	621.74007	-382.02743	-1167.89418	716.59826	-737.92946	-1197.00064	594.90282	-742.44179	-1117.69513	1029.79392	-371.79978	-1110.00111	916.59884	-387.05606	-1218.42000	908.04047	-409.12939	-1229.55688	1021.43412	-387.95307	-1170.88163	890.58057	-388.01145	-1099.03578	1050.65703	-750.52614	-1084.31100	913.92653	-726.69174	-1210.30352	1036.86577	-756.84501	-1198.91260	904.65987	-713.09055	-1069.17568	1216.82115	-447.70522	-1263.73847	1293.61179	-529.47757	-1060.64389	1218.24279	-667.11766	-1260.71142	1291.99391	-612.71756	-1037.98378	1697.00315	-543.70204	-990.76403	1651.91312	-400.58051	-986.69295	1665.22451	-680.99635	-937.25154	1601.04503	-518.94830	-937.39436	1602.47195	-559.18553	-1029.45872	1560.19552	-322.18396	-1237.62532	1475.05708	-292.23185	-1197.60849	1469.26529	-237.38701	-1181.04371	1375.21307	-219.86275	-1209.47735	1234.47073	-211.20459	-1235.89779	1244.94349	-185.34311	-1022.79749	1600.61556	-773.93761	-1207.13596	1483.82577	-836.60303	-1159.23956	1494.35152	-883.54905	-1150.87329	1389.86736	-918.49255	-1175.43357	1266.09917	-939.96856	-1201.05237	1280.56085	-967.89093	-1169.51351	1150.81234	-458.34965	-1159.22634	1153.10820	-665.58945	-1152.49312	1170.07345	-479.84027	-1147.22801	1167.25979	-624.64140	
44	0.43000000	-1150.82519	778.23843	-416.12800	-1116.46762	712.99233	-414.94172	-1209.68012	390.79063	-420.67767	-1264.09026	360.99554	-463.18171	-1101.61005	350.70046	-392.59148	-1062.61159	370.83268	-446.51565	-1121.86961	771.83262	-701.76354	-1093.57265	683.12114	-691.89351	-1205.06139	400.93194	-706.59673	-1263.42059	359.51167	-661.60033	-1104.88359	353.11867	-733.93148	-1054.51427	369.62920	-680.26869	-1144.31108	603.80738	-403.94972	-1184.44897	735.23747	-388.20774	-1220.55528	621.88257	-381.34867	-1165.99803	716.51518	-738.15717	-1195.75757	594.93249	-742.71476	-1117.22521	1029.06802	-370.89921	-1108.65161	916.37365	-386.58388	-1217.03119	907.11668	-409.00143	-1228.94038	1020.48382	-387.96152	-1169.44411	889.91592	-387.87167	-1098.59332	1050.30508	-750.41294	-1083.00381	913.66656	-726.74126	-1209.70919	1036.20935	-756.97459	-1197.75299	903.84699	-713.11436	-1069.18015	1215.75366	-447.67934	-1262.90830	1294.32319	-529.49437	-1060.58992	1216.95738	-666.69277	-1259.97826	1292.72508	-612.37984	-1032.09476	1694.90780	-543.51570	-985.34027	1649.42287	-400.19485	-981.23080	1662.69961	-680.76949	-932.40269	1598.02784	-518.77752	-932.50934	1599.44814	-559.10937	-1026.96569	1559.44471	-321.67080	-1237.94939	1480.61263	-293.94336	-1198.99871	1474.03091	-238.48644	-1185.32100	1379.55339	-220.26581	-1217.84535	1239.84897	-211.48451	-1244.57803	1250.95314	-186.57926	-1020.07276	1600.30479	-773.84374	-1209.37406	1490.12486	-835.27396	-1161.55122	1499.35462	-882.25057	-1156.61574	1394.78378	-918.10567	-1184.83465	1271.91890	-939.17166	-1210.49984	1286.86159	-966.53015	-1170.13843	1150.69713	-458.10927	-1159.79779	1152.79423	-665.34821	-1152.78850	1169.78227	-479.70000	-1147.67998	1166.99820	-624.24415	
